<mxfile host="app.diagrams.net" modified="2021-10-21T14:26:05.232Z" agent="5.0 (Windows NT 10.0; Win64; x64) AppleWebKit/537.36 (KHTML, like Gecko) Chrome/94.0.4606.81 Safari/537.36" etag="Gpg4bXdfg03tZYIlf6w5" version="15.5.2" type="github">
  <diagram id="-fiyKqTG5DQmv4OYRR-T" name="Page-1">
    <mxGraphModel dx="1022" dy="436" grid="1" gridSize="10" guides="1" tooltips="1" connect="1" arrows="1" fold="1" page="1" pageScale="1" pageWidth="850" pageHeight="1100" math="0" shadow="0">
      <root>
        <mxCell id="0" />
        <mxCell id="1" parent="0" />
        <mxCell id="eCsZ32YrMIrLhveUXaUG-15" style="edgeStyle=orthogonalEdgeStyle;rounded=0;orthogonalLoop=1;jettySize=auto;html=1;exitX=0.5;exitY=1;exitDx=0;exitDy=0;fontSize=14;entryX=0;entryY=0.5;entryDx=0;entryDy=0;" parent="1" source="eCsZ32YrMIrLhveUXaUG-3" target="eCsZ32YrMIrLhveUXaUG-4" edge="1">
          <mxGeometry relative="1" as="geometry">
            <mxPoint x="130" y="180" as="targetPoint" />
            <Array as="points">
              <mxPoint x="100" y="160" />
            </Array>
          </mxGeometry>
        </mxCell>
        <mxCell id="eCsZ32YrMIrLhveUXaUG-16" style="edgeStyle=orthogonalEdgeStyle;rounded=0;orthogonalLoop=1;jettySize=auto;html=1;exitX=0.5;exitY=1;exitDx=0;exitDy=0;entryX=0;entryY=0.5;entryDx=0;entryDy=0;fontSize=14;" parent="1" source="eCsZ32YrMIrLhveUXaUG-3" target="eCsZ32YrMIrLhveUXaUG-14" edge="1">
          <mxGeometry relative="1" as="geometry">
            <Array as="points">
              <mxPoint x="100" y="200" />
            </Array>
          </mxGeometry>
        </mxCell>
        <mxCell id="eCsZ32YrMIrLhveUXaUG-3" value="&lt;div align=&quot;center&quot;&gt;Main&lt;br&gt;&lt;/div&gt;" style="rounded=0;whiteSpace=wrap;html=1;fontSize=14;align=center;" parent="1" vertex="1">
          <mxGeometry x="60" y="80" width="80" height="40" as="geometry" />
        </mxCell>
        <mxCell id="eCsZ32YrMIrLhveUXaUG-27" style="edgeStyle=orthogonalEdgeStyle;rounded=0;orthogonalLoop=1;jettySize=auto;html=1;exitX=1;exitY=0.5;exitDx=0;exitDy=0;entryX=0;entryY=0.5;entryDx=0;entryDy=0;fontSize=14;" parent="1" source="eCsZ32YrMIrLhveUXaUG-4" target="eCsZ32YrMIrLhveUXaUG-25" edge="1">
          <mxGeometry relative="1" as="geometry" />
        </mxCell>
        <mxCell id="eCsZ32YrMIrLhveUXaUG-4" value="&lt;div align=&quot;center&quot;&gt;Signup&lt;br&gt;&lt;/div&gt;" style="rounded=0;whiteSpace=wrap;html=1;fontSize=14;align=center;" parent="1" vertex="1">
          <mxGeometry x="130" y="140" width="70" height="40" as="geometry" />
        </mxCell>
        <mxCell id="eCsZ32YrMIrLhveUXaUG-5" value="List" style="swimlane;fontStyle=0;childLayout=stackLayout;horizontal=1;startSize=30;horizontalStack=0;resizeParent=1;resizeParentMax=0;resizeLast=0;collapsible=1;marginBottom=0;fontSize=14;align=left;" parent="1" vertex="1" collapsed="1">
          <mxGeometry x="650" y="20" width="50" height="30" as="geometry">
            <mxRectangle x="650" y="20" width="300" height="270" as="alternateBounds" />
          </mxGeometry>
        </mxCell>
        <mxCell id="eCsZ32YrMIrLhveUXaUG-7" value="1) Реєстрація / авторизація" style="text;strokeColor=none;fillColor=none;align=left;verticalAlign=middle;spacingLeft=4;spacingRight=4;overflow=hidden;points=[[0,0.5],[1,0.5]];portConstraint=eastwest;rotatable=0;fontSize=14;" parent="eCsZ32YrMIrLhveUXaUG-5" vertex="1">
          <mxGeometry y="30" width="50" height="30" as="geometry" />
        </mxCell>
        <mxCell id="eCsZ32YrMIrLhveUXaUG-6" value="2) Перегляд подій" style="text;strokeColor=none;fillColor=none;align=left;verticalAlign=middle;spacingLeft=4;spacingRight=4;overflow=hidden;points=[[0,0.5],[1,0.5]];portConstraint=eastwest;rotatable=0;fontSize=14;" parent="eCsZ32YrMIrLhveUXaUG-5" vertex="1">
          <mxGeometry y="60" width="50" height="30" as="geometry" />
        </mxCell>
        <mxCell id="eCsZ32YrMIrLhveUXaUG-19" value="3) Перегляд профілей користувачей" style="text;strokeColor=none;fillColor=none;align=left;verticalAlign=middle;spacingLeft=4;spacingRight=4;overflow=hidden;points=[[0,0.5],[1,0.5]];portConstraint=eastwest;rotatable=0;fontSize=14;" parent="eCsZ32YrMIrLhveUXaUG-5" vertex="1">
          <mxGeometry y="90" width="50" height="30" as="geometry" />
        </mxCell>
        <mxCell id="eCsZ32YrMIrLhveUXaUG-8" value="4) Пошук подій" style="text;strokeColor=none;fillColor=none;align=left;verticalAlign=middle;spacingLeft=4;spacingRight=4;overflow=hidden;points=[[0,0.5],[1,0.5]];portConstraint=eastwest;rotatable=0;fontSize=14;" parent="eCsZ32YrMIrLhveUXaUG-5" vertex="1">
          <mxGeometry y="120" width="50" height="30" as="geometry" />
        </mxCell>
        <mxCell id="eCsZ32YrMIrLhveUXaUG-9" value="5) Створення подій" style="text;strokeColor=none;fillColor=none;align=left;verticalAlign=middle;spacingLeft=4;spacingRight=4;overflow=hidden;points=[[0,0.5],[1,0.5]];portConstraint=eastwest;rotatable=0;fontSize=14;" parent="eCsZ32YrMIrLhveUXaUG-5" vertex="1">
          <mxGeometry y="150" width="50" height="30" as="geometry" />
        </mxCell>
        <mxCell id="eCsZ32YrMIrLhveUXaUG-11" value="6) Підписка на подію(покупка білету)" style="text;strokeColor=none;fillColor=none;align=left;verticalAlign=middle;spacingLeft=4;spacingRight=4;overflow=hidden;points=[[0,0.5],[1,0.5]];portConstraint=eastwest;rotatable=0;fontSize=14;" parent="eCsZ32YrMIrLhveUXaUG-5" vertex="1">
          <mxGeometry y="180" width="50" height="30" as="geometry" />
        </mxCell>
        <mxCell id="eCsZ32YrMIrLhveUXaUG-10" value="7) Видалення події" style="text;strokeColor=none;fillColor=none;align=left;verticalAlign=middle;spacingLeft=4;spacingRight=4;overflow=hidden;points=[[0,0.5],[1,0.5]];portConstraint=eastwest;rotatable=0;fontSize=14;" parent="eCsZ32YrMIrLhveUXaUG-5" vertex="1">
          <mxGeometry y="210" width="50" height="30" as="geometry" />
        </mxCell>
        <mxCell id="eCsZ32YrMIrLhveUXaUG-13" value="8) Спілкування з іншими користувачами " style="text;strokeColor=none;fillColor=none;align=left;verticalAlign=middle;spacingLeft=4;spacingRight=4;overflow=hidden;points=[[0,0.5],[1,0.5]];portConstraint=eastwest;rotatable=0;fontSize=14;" parent="eCsZ32YrMIrLhveUXaUG-5" vertex="1">
          <mxGeometry y="240" width="50" height="30" as="geometry" />
        </mxCell>
        <mxCell id="eCsZ32YrMIrLhveUXaUG-28" style="edgeStyle=orthogonalEdgeStyle;rounded=0;orthogonalLoop=1;jettySize=auto;html=1;exitX=1;exitY=0.5;exitDx=0;exitDy=0;entryX=0;entryY=0.5;entryDx=0;entryDy=0;fontSize=14;" parent="1" source="eCsZ32YrMIrLhveUXaUG-14" target="eCsZ32YrMIrLhveUXaUG-26" edge="1">
          <mxGeometry relative="1" as="geometry" />
        </mxCell>
        <mxCell id="eCsZ32YrMIrLhveUXaUG-14" value="&lt;div align=&quot;center&quot;&gt;Login &lt;br&gt;&lt;/div&gt;" style="rounded=0;whiteSpace=wrap;html=1;fontSize=14;align=center;" parent="1" vertex="1">
          <mxGeometry x="130" y="180" width="70" height="40" as="geometry" />
        </mxCell>
        <mxCell id="eCsZ32YrMIrLhveUXaUG-23" value="прямокутник - це сторінка" style="rounded=0;whiteSpace=wrap;html=1;fontSize=14;align=center;" parent="1" vertex="1">
          <mxGeometry x="50" y="10" width="110" height="50" as="geometry" />
        </mxCell>
        <mxCell id="eCsZ32YrMIrLhveUXaUG-24" value="овал - це дія" style="ellipse;whiteSpace=wrap;html=1;fontSize=14;align=center;" parent="1" vertex="1">
          <mxGeometry x="190" y="10" width="110" height="50" as="geometry" />
        </mxCell>
        <mxCell id="eCsZ32YrMIrLhveUXaUG-25" value="&lt;font style=&quot;font-size: 11px&quot;&gt;send sign-up form&lt;/font&gt;" style="ellipse;whiteSpace=wrap;html=1;fontSize=14;align=center;" parent="1" vertex="1">
          <mxGeometry x="240" y="140" width="100" height="40" as="geometry" />
        </mxCell>
        <mxCell id="eCsZ32YrMIrLhveUXaUG-55" style="edgeStyle=orthogonalEdgeStyle;rounded=0;orthogonalLoop=1;jettySize=auto;html=1;entryX=0.5;entryY=0;entryDx=0;entryDy=0;fontSize=10;" parent="1" source="eCsZ32YrMIrLhveUXaUG-26" target="eCsZ32YrMIrLhveUXaUG-29" edge="1">
          <mxGeometry relative="1" as="geometry" />
        </mxCell>
        <mxCell id="eCsZ32YrMIrLhveUXaUG-56" value="If success show" style="edgeLabel;html=1;align=center;verticalAlign=middle;resizable=0;points=[];fontSize=10;" parent="eCsZ32YrMIrLhveUXaUG-55" vertex="1" connectable="0">
          <mxGeometry x="-0.1959" y="-1" relative="1" as="geometry">
            <mxPoint as="offset" />
          </mxGeometry>
        </mxCell>
        <mxCell id="eCsZ32YrMIrLhveUXaUG-26" value="&lt;font style=&quot;font-size: 11px&quot;&gt;send login &amp;amp; password&lt;/font&gt;" style="ellipse;whiteSpace=wrap;html=1;fontSize=14;align=center;" parent="1" vertex="1">
          <mxGeometry x="240" y="180" width="100" height="40" as="geometry" />
        </mxCell>
        <mxCell id="eCsZ32YrMIrLhveUXaUG-43" style="edgeStyle=orthogonalEdgeStyle;rounded=0;orthogonalLoop=1;jettySize=auto;html=1;entryX=0;entryY=0.5;entryDx=0;entryDy=0;fontSize=14;" parent="1" source="eCsZ32YrMIrLhveUXaUG-29" target="eCsZ32YrMIrLhveUXaUG-37" edge="1">
          <mxGeometry relative="1" as="geometry" />
        </mxCell>
        <mxCell id="eCsZ32YrMIrLhveUXaUG-44" style="edgeStyle=orthogonalEdgeStyle;rounded=0;orthogonalLoop=1;jettySize=auto;html=1;entryX=0;entryY=0.5;entryDx=0;entryDy=0;fontSize=14;" parent="1" source="eCsZ32YrMIrLhveUXaUG-29" target="eCsZ32YrMIrLhveUXaUG-34" edge="1">
          <mxGeometry relative="1" as="geometry" />
        </mxCell>
        <mxCell id="eCsZ32YrMIrLhveUXaUG-45" style="edgeStyle=orthogonalEdgeStyle;rounded=0;orthogonalLoop=1;jettySize=auto;html=1;entryX=0;entryY=0.5;entryDx=0;entryDy=0;fontSize=14;" parent="1" source="eCsZ32YrMIrLhveUXaUG-29" target="eCsZ32YrMIrLhveUXaUG-38" edge="1">
          <mxGeometry relative="1" as="geometry" />
        </mxCell>
        <mxCell id="5NBApSl5kGVGbpfOEcNT-12" style="edgeStyle=orthogonalEdgeStyle;rounded=0;orthogonalLoop=1;jettySize=auto;html=1;entryX=0;entryY=0.5;entryDx=0;entryDy=0;" edge="1" parent="1" source="eCsZ32YrMIrLhveUXaUG-29" target="5NBApSl5kGVGbpfOEcNT-1">
          <mxGeometry relative="1" as="geometry" />
        </mxCell>
        <mxCell id="eCsZ32YrMIrLhveUXaUG-29" value="&lt;div align=&quot;center&quot;&gt;Own&lt;/div&gt;&lt;div align=&quot;center&quot;&gt;Profile&lt;br&gt;&lt;/div&gt;" style="rounded=0;whiteSpace=wrap;html=1;fontSize=14;align=center;" parent="1" vertex="1">
          <mxGeometry x="249.38" y="270" width="81.25" height="40" as="geometry" />
        </mxCell>
        <mxCell id="eCsZ32YrMIrLhveUXaUG-47" style="edgeStyle=orthogonalEdgeStyle;rounded=0;orthogonalLoop=1;jettySize=auto;html=1;exitX=1;exitY=0.5;exitDx=0;exitDy=0;entryX=0;entryY=0.5;entryDx=0;entryDy=0;fontSize=14;" parent="1" source="eCsZ32YrMIrLhveUXaUG-34" target="eCsZ32YrMIrLhveUXaUG-46" edge="1">
          <mxGeometry relative="1" as="geometry" />
        </mxCell>
        <mxCell id="eCsZ32YrMIrLhveUXaUG-34" value="Find events" style="rounded=0;whiteSpace=wrap;html=1;fontSize=14;align=center;" parent="1" vertex="1">
          <mxGeometry x="310" y="580" width="90" height="40" as="geometry" />
        </mxCell>
        <mxCell id="eCsZ32YrMIrLhveUXaUG-60" style="edgeStyle=orthogonalEdgeStyle;rounded=0;orthogonalLoop=1;jettySize=auto;html=1;fontSize=10;" parent="1" source="eCsZ32YrMIrLhveUXaUG-37" target="eCsZ32YrMIrLhveUXaUG-59" edge="1">
          <mxGeometry relative="1" as="geometry" />
        </mxCell>
        <mxCell id="eCsZ32YrMIrLhveUXaUG-62" style="edgeStyle=orthogonalEdgeStyle;rounded=0;orthogonalLoop=1;jettySize=auto;html=1;entryX=0;entryY=0.5;entryDx=0;entryDy=0;fontSize=10;" parent="1" source="eCsZ32YrMIrLhveUXaUG-37" target="eCsZ32YrMIrLhveUXaUG-39" edge="1">
          <mxGeometry relative="1" as="geometry">
            <Array as="points">
              <mxPoint x="355" y="440" />
            </Array>
          </mxGeometry>
        </mxCell>
        <mxCell id="eCsZ32YrMIrLhveUXaUG-37" value="Friends" style="rounded=0;whiteSpace=wrap;html=1;fontSize=14;align=center;" parent="1" vertex="1">
          <mxGeometry x="310" y="340" width="90" height="40" as="geometry" />
        </mxCell>
        <mxCell id="eCsZ32YrMIrLhveUXaUG-49" style="edgeStyle=orthogonalEdgeStyle;rounded=0;orthogonalLoop=1;jettySize=auto;html=1;entryX=0;entryY=0.5;entryDx=0;entryDy=0;fontSize=14;" parent="1" source="eCsZ32YrMIrLhveUXaUG-38" target="eCsZ32YrMIrLhveUXaUG-41" edge="1">
          <mxGeometry relative="1" as="geometry" />
        </mxCell>
        <mxCell id="eCsZ32YrMIrLhveUXaUG-38" value="Visited events" style="rounded=0;whiteSpace=wrap;html=1;fontSize=14;align=center;" parent="1" vertex="1">
          <mxGeometry x="310" y="500" width="90" height="40" as="geometry" />
        </mxCell>
        <mxCell id="eCsZ32YrMIrLhveUXaUG-65" style="edgeStyle=orthogonalEdgeStyle;rounded=0;orthogonalLoop=1;jettySize=auto;html=1;fontSize=10;" parent="1" source="eCsZ32YrMIrLhveUXaUG-39" target="eCsZ32YrMIrLhveUXaUG-63" edge="1">
          <mxGeometry relative="1" as="geometry" />
        </mxCell>
        <mxCell id="5NBApSl5kGVGbpfOEcNT-26" style="edgeStyle=orthogonalEdgeStyle;rounded=0;orthogonalLoop=1;jettySize=auto;html=1;exitX=0.75;exitY=1;exitDx=0;exitDy=0;entryX=0;entryY=0.5;entryDx=0;entryDy=0;fontSize=11;" edge="1" parent="1" source="eCsZ32YrMIrLhveUXaUG-39" target="5NBApSl5kGVGbpfOEcNT-25">
          <mxGeometry relative="1" as="geometry">
            <Array as="points">
              <mxPoint x="528" y="480" />
              <mxPoint x="670" y="480" />
              <mxPoint x="670" y="600" />
            </Array>
          </mxGeometry>
        </mxCell>
        <mxCell id="eCsZ32YrMIrLhveUXaUG-39" value="User profile" style="rounded=0;whiteSpace=wrap;html=1;fontSize=14;align=center;" parent="1" vertex="1">
          <mxGeometry x="445" y="420" width="110" height="40" as="geometry" />
        </mxCell>
        <mxCell id="eCsZ32YrMIrLhveUXaUG-67" style="edgeStyle=orthogonalEdgeStyle;rounded=0;orthogonalLoop=1;jettySize=auto;html=1;entryX=0.5;entryY=1;entryDx=0;entryDy=0;fontSize=10;" parent="1" source="eCsZ32YrMIrLhveUXaUG-41" target="eCsZ32YrMIrLhveUXaUG-39" edge="1">
          <mxGeometry relative="1" as="geometry" />
        </mxCell>
        <mxCell id="eCsZ32YrMIrLhveUXaUG-68" style="edgeStyle=orthogonalEdgeStyle;rounded=0;orthogonalLoop=1;jettySize=auto;html=1;entryX=0;entryY=0.5;entryDx=0;entryDy=0;fontSize=10;" parent="1" source="eCsZ32YrMIrLhveUXaUG-41" target="eCsZ32YrMIrLhveUXaUG-66" edge="1">
          <mxGeometry relative="1" as="geometry" />
        </mxCell>
        <mxCell id="5NBApSl5kGVGbpfOEcNT-27" style="edgeStyle=orthogonalEdgeStyle;rounded=0;orthogonalLoop=1;jettySize=auto;html=1;exitX=0.75;exitY=1;exitDx=0;exitDy=0;entryX=0;entryY=0.5;entryDx=0;entryDy=0;fontSize=11;" edge="1" parent="1" source="eCsZ32YrMIrLhveUXaUG-41" target="5NBApSl5kGVGbpfOEcNT-25">
          <mxGeometry relative="1" as="geometry">
            <Array as="points">
              <mxPoint x="525" y="560" />
              <mxPoint x="600" y="560" />
              <mxPoint x="600" y="600" />
            </Array>
          </mxGeometry>
        </mxCell>
        <mxCell id="eCsZ32YrMIrLhveUXaUG-41" value="Event profile" style="rounded=0;whiteSpace=wrap;html=1;fontSize=14;align=center;" parent="1" vertex="1">
          <mxGeometry x="450" y="500" width="100" height="40" as="geometry" />
        </mxCell>
        <mxCell id="eCsZ32YrMIrLhveUXaUG-50" style="edgeStyle=orthogonalEdgeStyle;rounded=0;orthogonalLoop=1;jettySize=auto;html=1;entryX=0.5;entryY=1;entryDx=0;entryDy=0;fontSize=14;" parent="1" source="eCsZ32YrMIrLhveUXaUG-46" target="eCsZ32YrMIrLhveUXaUG-41" edge="1">
          <mxGeometry relative="1" as="geometry" />
        </mxCell>
        <mxCell id="eCsZ32YrMIrLhveUXaUG-46" value="&lt;font style=&quot;font-size: 10px&quot;&gt;Send search event request -&amp;gt; show found events&lt;br&gt;&lt;/font&gt;" style="ellipse;whiteSpace=wrap;html=1;fontSize=14;align=center;" parent="1" vertex="1">
          <mxGeometry x="442.5" y="572.5" width="115" height="55" as="geometry" />
        </mxCell>
        <mxCell id="eCsZ32YrMIrLhveUXaUG-61" style="edgeStyle=orthogonalEdgeStyle;rounded=0;orthogonalLoop=1;jettySize=auto;html=1;entryX=0.5;entryY=0;entryDx=0;entryDy=0;fontSize=10;" parent="1" source="eCsZ32YrMIrLhveUXaUG-59" target="eCsZ32YrMIrLhveUXaUG-39" edge="1">
          <mxGeometry relative="1" as="geometry" />
        </mxCell>
        <mxCell id="eCsZ32YrMIrLhveUXaUG-59" value="Search friend&lt;br&gt;by name -&amp;gt;show found &lt;br&gt;people" style="ellipse;whiteSpace=wrap;html=1;fontSize=10;align=center;" parent="1" vertex="1">
          <mxGeometry x="446.25" y="335" width="107.5" height="50" as="geometry" />
        </mxCell>
        <mxCell id="eCsZ32YrMIrLhveUXaUG-63" value="follow/unfollow" style="ellipse;whiteSpace=wrap;html=1;fontSize=10;align=center;" parent="1" vertex="1">
          <mxGeometry x="590" y="420" width="100" height="40" as="geometry" />
        </mxCell>
        <mxCell id="eCsZ32YrMIrLhveUXaUG-66" value="subscribe/&lt;br&gt;unsubscribe" style="ellipse;whiteSpace=wrap;html=1;fontSize=10;align=center;" parent="1" vertex="1">
          <mxGeometry x="580" y="502" width="80" height="36" as="geometry" />
        </mxCell>
        <mxCell id="5NBApSl5kGVGbpfOEcNT-10" style="edgeStyle=orthogonalEdgeStyle;rounded=0;orthogonalLoop=1;jettySize=auto;html=1;entryX=0;entryY=0.5;entryDx=0;entryDy=0;" edge="1" parent="1" source="5NBApSl5kGVGbpfOEcNT-1" target="5NBApSl5kGVGbpfOEcNT-3">
          <mxGeometry relative="1" as="geometry">
            <Array as="points">
              <mxPoint x="430" y="700" />
              <mxPoint x="430" y="700" />
            </Array>
          </mxGeometry>
        </mxCell>
        <mxCell id="5NBApSl5kGVGbpfOEcNT-11" style="edgeStyle=orthogonalEdgeStyle;rounded=0;orthogonalLoop=1;jettySize=auto;html=1;exitX=0.5;exitY=1;exitDx=0;exitDy=0;entryX=0;entryY=0.5;entryDx=0;entryDy=0;" edge="1" parent="1" source="5NBApSl5kGVGbpfOEcNT-1" target="5NBApSl5kGVGbpfOEcNT-2">
          <mxGeometry relative="1" as="geometry">
            <Array as="points">
              <mxPoint x="355" y="790" />
            </Array>
          </mxGeometry>
        </mxCell>
        <mxCell id="5NBApSl5kGVGbpfOEcNT-1" value="My events" style="rounded=0;whiteSpace=wrap;html=1;" vertex="1" parent="1">
          <mxGeometry x="310" y="680" width="90" height="40" as="geometry" />
        </mxCell>
        <mxCell id="5NBApSl5kGVGbpfOEcNT-13" style="edgeStyle=orthogonalEdgeStyle;rounded=0;orthogonalLoop=1;jettySize=auto;html=1;exitX=1;exitY=0.5;exitDx=0;exitDy=0;entryX=0;entryY=0.5;entryDx=0;entryDy=0;" edge="1" parent="1" source="5NBApSl5kGVGbpfOEcNT-2" target="5NBApSl5kGVGbpfOEcNT-4">
          <mxGeometry relative="1" as="geometry" />
        </mxCell>
        <mxCell id="5NBApSl5kGVGbpfOEcNT-2" value="Create event form" style="rounded=0;whiteSpace=wrap;html=1;" vertex="1" parent="1">
          <mxGeometry x="446.25" y="770" width="105" height="40" as="geometry" />
        </mxCell>
        <mxCell id="5NBApSl5kGVGbpfOEcNT-7" style="edgeStyle=none;rounded=0;orthogonalLoop=1;jettySize=auto;html=1;exitX=1;exitY=0.5;exitDx=0;exitDy=0;entryX=0;entryY=0.5;entryDx=0;entryDy=0;" edge="1" parent="1" source="5NBApSl5kGVGbpfOEcNT-3" target="5NBApSl5kGVGbpfOEcNT-5">
          <mxGeometry relative="1" as="geometry" />
        </mxCell>
        <mxCell id="5NBApSl5kGVGbpfOEcNT-8" style="edgeStyle=none;rounded=0;orthogonalLoop=1;jettySize=auto;html=1;exitX=1;exitY=0.5;exitDx=0;exitDy=0;entryX=0;entryY=0.5;entryDx=0;entryDy=0;" edge="1" parent="1" source="5NBApSl5kGVGbpfOEcNT-3" target="5NBApSl5kGVGbpfOEcNT-6">
          <mxGeometry relative="1" as="geometry" />
        </mxCell>
        <mxCell id="5NBApSl5kGVGbpfOEcNT-28" style="edgeStyle=orthogonalEdgeStyle;rounded=0;orthogonalLoop=1;jettySize=auto;html=1;exitX=0.75;exitY=0;exitDx=0;exitDy=0;entryX=0;entryY=0.5;entryDx=0;entryDy=0;fontSize=11;" edge="1" parent="1" source="5NBApSl5kGVGbpfOEcNT-3" target="5NBApSl5kGVGbpfOEcNT-25">
          <mxGeometry relative="1" as="geometry">
            <Array as="points">
              <mxPoint x="520" y="640" />
              <mxPoint x="600" y="640" />
              <mxPoint x="600" y="600" />
            </Array>
          </mxGeometry>
        </mxCell>
        <mxCell id="5NBApSl5kGVGbpfOEcNT-3" value="Organizer event profile" style="rounded=0;whiteSpace=wrap;html=1;" vertex="1" parent="1">
          <mxGeometry x="442.5" y="680" width="103.75" height="40" as="geometry" />
        </mxCell>
        <mxCell id="5NBApSl5kGVGbpfOEcNT-4" value="&lt;font style=&quot;font-size: 11px&quot;&gt;send create event form&lt;/font&gt;" style="ellipse;whiteSpace=wrap;html=1;" vertex="1" parent="1">
          <mxGeometry x="576.25" y="770" width="85" height="40" as="geometry" />
        </mxCell>
        <mxCell id="5NBApSl5kGVGbpfOEcNT-5" value="&lt;font style=&quot;font-size: 11px&quot;&gt;Edit event&lt;/font&gt;" style="ellipse;whiteSpace=wrap;html=1;" vertex="1" parent="1">
          <mxGeometry x="577.5" y="670" width="85" height="30" as="geometry" />
        </mxCell>
        <mxCell id="5NBApSl5kGVGbpfOEcNT-6" value="&lt;font style=&quot;font-size: 11px&quot;&gt;delete event&lt;/font&gt;" style="ellipse;whiteSpace=wrap;html=1;" vertex="1" parent="1">
          <mxGeometry x="575" y="710" width="90" height="30" as="geometry" />
        </mxCell>
        <mxCell id="5NBApSl5kGVGbpfOEcNT-30" style="edgeStyle=orthogonalEdgeStyle;rounded=0;orthogonalLoop=1;jettySize=auto;html=1;exitX=1;exitY=0.5;exitDx=0;exitDy=0;entryX=0;entryY=0.5;entryDx=0;entryDy=0;fontSize=11;" edge="1" parent="1" source="5NBApSl5kGVGbpfOEcNT-25" target="5NBApSl5kGVGbpfOEcNT-29">
          <mxGeometry relative="1" as="geometry" />
        </mxCell>
        <mxCell id="5NBApSl5kGVGbpfOEcNT-25" value="Chat room" style="rounded=0;whiteSpace=wrap;html=1;fontSize=11;" vertex="1" parent="1">
          <mxGeometry x="690" y="580" width="100" height="40" as="geometry" />
        </mxCell>
        <mxCell id="5NBApSl5kGVGbpfOEcNT-29" value="send message" style="ellipse;whiteSpace=wrap;html=1;fontSize=11;" vertex="1" parent="1">
          <mxGeometry x="820" y="580" width="100" height="40" as="geometry" />
        </mxCell>
      </root>
    </mxGraphModel>
  </diagram>
</mxfile>
